<svg width="16" height="123" viewBox="0 0 16 123" fill="none" xmlns="http://www.w3.org/2000/svg">
<g clip-path="url(#clip0_967_1932)">
<path d="M16 123.105C13.8552 123.005 12.5365 120.754 11.8018 118.969C11.5275 118.302 11.547 117.546 11.8779 116.906C13.1257 114.492 14.7542 113.488 16 113.152V123.105ZM16 108.597C14.4298 108.538 12.4279 107.579 12.4277 104.016C12.4277 100.18 14.6544 99.5081 16 99.2822V108.597ZM16 93.5293C14.2705 93.4706 10.9033 93.9804 10.9033 89.5244C10.9035 85.4276 13.8688 84.199 16 84.0312V93.5293ZM16 79.1758C11.4769 79.6274 3.5116 77.7861 1.25098 67.04C-1.18753 55.4477 10.0575 49.5508 15.9844 48.0518V43.0557L13.0225 42.2236C12.6284 42.1129 12.2461 41.9505 11.9365 41.6826C10.9612 40.8386 9.86687 39.2592 10.9033 37.5596C11.8987 35.9279 14.3165 35.0731 16 34.7236V79.1758ZM16 29.458C15.6794 29.4252 15.3759 29.3959 15.1377 29.375C13.2064 28.8003 10.3247 27.4128 10.9033 24.5674C11.5787 21.2468 14.1711 20.2275 16 20.0723V29.458ZM16 14.6914C15.1646 14.5922 13.8789 14.1454 12.4277 11.5762C10.6597 8.44581 13.6354 6.34952 16 5.41895V14.6914ZM16 0.104492C15.3398 -0.0544984 14.4991 -0.0046736 13.9521 0.0849609H-121V0H16V0.104492Z" fill="white"/>
</g>
<defs>
<clipPath id="clip0_967_1932">
<rect width="16" height="123" fill="white"/>
</clipPath>
</defs>
</svg>
