<svg width="159" height="21" viewBox="0 0 159 21" fill="none" xmlns="http://www.w3.org/2000/svg">
<path d="M0 0H159L143 21H16.5L0 0Z" fill="#25026E"/>
<path d="M43.892 15L47.636 6.6H49.556L53.312 15H51.272L48.2 7.584H48.968L45.884 15H43.892ZM45.764 13.2L46.28 11.724H50.6L51.128 13.2H45.764ZM56.6583 15.096C56.1223 15.096 55.6423 14.992 55.2183 14.784C54.8023 14.576 54.4783 14.26 54.2463 13.836C54.0143 13.404 53.8983 12.856 53.8983 12.192V8.544H55.7703V11.916C55.7703 12.452 55.8823 12.848 56.1063 13.104C56.3383 13.352 56.6623 13.476 57.0783 13.476C57.3663 13.476 57.6223 13.416 57.8463 13.296C58.0703 13.168 58.2463 12.976 58.3743 12.72C58.5023 12.456 58.5663 12.128 58.5663 11.736V8.544H60.4383V15H58.6623V13.224L58.9863 13.74C58.7703 14.188 58.4503 14.528 58.0263 14.76C57.6103 14.984 57.1543 15.096 56.6583 15.096ZM63.7206 13.68L63.7686 11.4L66.7806 8.544H69.0126L66.1206 11.484L65.1486 12.276L63.7206 13.68ZM62.1726 15V6.096H64.0446V15H62.1726ZM66.9846 15L64.8006 12.288L65.9766 10.836L69.2526 15H66.9846ZM70.0945 15V8.544H71.9665V15H70.0945ZM71.0305 7.644C70.6865 7.644 70.4065 7.544 70.1905 7.344C69.9745 7.144 69.8665 6.896 69.8665 6.6C69.8665 6.304 69.9745 6.056 70.1905 5.856C70.4065 5.656 70.6865 5.556 71.0305 5.556C71.3745 5.556 71.6545 5.652 71.8705 5.844C72.0865 6.028 72.1945 6.268 72.1945 6.564C72.1945 6.876 72.0865 7.136 71.8705 7.344C71.6625 7.544 71.3825 7.644 71.0305 7.644ZM76.7758 15.096C76.0878 15.096 75.4758 14.952 74.9398 14.664C74.4118 14.376 73.9918 13.984 73.6798 13.488C73.3758 12.984 73.2238 12.412 73.2238 11.772C73.2238 11.124 73.3758 10.552 73.6798 10.056C73.9918 9.552 74.4118 9.16 74.9398 8.88C75.4758 8.592 76.0878 8.448 76.7758 8.448C77.4558 8.448 78.0638 8.592 78.5998 8.88C79.1358 9.16 79.5558 9.548 79.8598 10.044C80.1638 10.54 80.3158 11.116 80.3158 11.772C80.3158 12.412 80.1638 12.984 79.8598 13.488C79.5558 13.984 79.1358 14.376 78.5998 14.664C78.0638 14.952 77.4558 15.096 76.7758 15.096ZM76.7758 13.56C77.0878 13.56 77.3678 13.488 77.6158 13.344C77.8638 13.2 78.0598 12.996 78.2038 12.732C78.3478 12.46 78.4198 12.14 78.4198 11.772C78.4198 11.396 78.3478 11.076 78.2038 10.812C78.0598 10.548 77.8638 10.344 77.6158 10.2C77.3678 10.056 77.0878 9.984 76.7758 9.984C76.4638 9.984 76.1838 10.056 75.9358 10.2C75.6878 10.344 75.4878 10.548 75.3358 10.812C75.1918 11.076 75.1198 11.396 75.1198 11.772C75.1198 12.14 75.1918 12.46 75.3358 12.732C75.4878 12.996 75.6878 13.2 75.9358 13.344C76.1838 13.488 76.4638 13.56 76.7758 13.56ZM81.5671 15V6.096H83.4391V15H81.5671ZM88.2485 15.096C87.5605 15.096 86.9485 14.952 86.4125 14.664C85.8845 14.376 85.4645 13.984 85.1525 13.488C84.8485 12.984 84.6965 12.412 84.6965 11.772C84.6965 11.124 84.8485 10.552 85.1525 10.056C85.4645 9.552 85.8845 9.16 86.4125 8.88C86.9485 8.592 87.5605 8.448 88.2485 8.448C88.9285 8.448 89.5365 8.592 90.0725 8.88C90.6085 9.16 91.0285 9.548 91.3325 10.044C91.6365 10.54 91.7885 11.116 91.7885 11.772C91.7885 12.412 91.6365 12.984 91.3325 13.488C91.0285 13.984 90.6085 14.376 90.0725 14.664C89.5365 14.952 88.9285 15.096 88.2485 15.096ZM88.2485 13.56C88.5605 13.56 88.8405 13.488 89.0885 13.344C89.3365 13.2 89.5325 12.996 89.6765 12.732C89.8205 12.46 89.8925 12.14 89.8925 11.772C89.8925 11.396 89.8205 11.076 89.6765 10.812C89.5325 10.548 89.3365 10.344 89.0885 10.2C88.8405 10.056 88.5605 9.984 88.2485 9.984C87.9365 9.984 87.6565 10.056 87.4085 10.2C87.1605 10.344 86.9605 10.548 86.8085 10.812C86.6645 11.076 86.5925 11.396 86.5925 11.772C86.5925 12.14 86.6645 12.46 86.8085 12.732C86.9605 12.996 87.1605 13.2 87.4085 13.344C87.6565 13.488 87.9365 13.56 88.2485 13.56ZM96.8943 15V13.74L96.7743 13.464V11.208C96.7743 10.808 96.6503 10.496 96.4023 10.272C96.1623 10.048 95.7903 9.936 95.2863 9.936C94.9423 9.936 94.6023 9.992 94.2663 10.104C93.9383 10.208 93.6583 10.352 93.4263 10.536L92.7543 9.228C93.1063 8.98 93.5303 8.788 94.0263 8.652C94.5223 8.516 95.0263 8.448 95.5383 8.448C96.5223 8.448 97.2863 8.68 97.8303 9.144C98.3743 9.608 98.6463 10.332 98.6463 11.316V15H96.8943ZM94.9263 15.096C94.4223 15.096 93.9903 15.012 93.6303 14.844C93.2703 14.668 92.9943 14.432 92.8023 14.136C92.6103 13.84 92.5143 13.508 92.5143 13.14C92.5143 12.756 92.6063 12.42 92.7903 12.132C92.9823 11.844 93.2823 11.62 93.6903 11.46C94.0983 11.292 94.6303 11.208 95.2863 11.208H97.0023V12.3H95.4903C95.0503 12.3 94.7463 12.372 94.5783 12.516C94.4183 12.66 94.3383 12.84 94.3383 13.056C94.3383 13.296 94.4303 13.488 94.6143 13.632C94.8063 13.768 95.0663 13.836 95.3943 13.836C95.7063 13.836 95.9863 13.764 96.2343 13.62C96.4823 13.468 96.6623 13.248 96.7743 12.96L97.0623 13.824C96.9263 14.24 96.6783 14.556 96.3183 14.772C95.9583 14.988 95.4943 15.096 94.9263 15.096ZM99.8606 17.424C99.5726 17.424 99.2966 17.392 99.0326 17.328C98.7686 17.272 98.5446 17.184 98.3606 17.064L98.8646 15.708C99.0806 15.86 99.3446 15.936 99.6566 15.936C99.8886 15.936 100.073 15.856 100.209 15.696C100.353 15.544 100.425 15.312 100.425 15V8.544H102.297V14.988C102.297 15.732 102.085 16.324 101.661 16.764C101.237 17.204 100.637 17.424 99.8606 17.424ZM101.361 7.644C101.017 7.644 100.737 7.544 100.521 7.344C100.305 7.144 100.197 6.896 100.197 6.6C100.197 6.304 100.305 6.056 100.521 5.856C100.737 5.656 101.017 5.556 101.361 5.556C101.705 5.556 101.985 5.652 102.201 5.844C102.417 6.028 102.525 6.268 102.525 6.564C102.525 6.876 102.417 7.136 102.201 7.344C101.993 7.544 101.713 7.644 101.361 7.644ZM107.98 15V13.74L107.86 13.464V11.208C107.86 10.808 107.736 10.496 107.488 10.272C107.248 10.048 106.876 9.936 106.372 9.936C106.028 9.936 105.688 9.992 105.352 10.104C105.024 10.208 104.744 10.352 104.512 10.536L103.84 9.228C104.192 8.98 104.616 8.788 105.112 8.652C105.608 8.516 106.112 8.448 106.624 8.448C107.608 8.448 108.372 8.68 108.916 9.144C109.46 9.608 109.732 10.332 109.732 11.316V15H107.98ZM106.012 15.096C105.508 15.096 105.076 15.012 104.716 14.844C104.356 14.668 104.08 14.432 103.888 14.136C103.696 13.84 103.6 13.508 103.6 13.14C103.6 12.756 103.692 12.42 103.876 12.132C104.068 11.844 104.368 11.62 104.776 11.46C105.184 11.292 105.716 11.208 106.372 11.208H108.088V12.3H106.576C106.136 12.3 105.832 12.372 105.664 12.516C105.504 12.66 105.424 12.84 105.424 13.056C105.424 13.296 105.516 13.488 105.7 13.632C105.892 13.768 106.152 13.836 106.48 13.836C106.792 13.836 107.072 13.764 107.32 13.62C107.568 13.468 107.748 13.248 107.86 12.96L108.148 13.824C108.012 14.24 107.764 14.556 107.404 14.772C107.044 14.988 106.58 15.096 106.012 15.096ZM114.067 15.096C113.307 15.096 112.715 14.904 112.291 14.52C111.867 14.128 111.655 13.548 111.655 12.78V7.116H113.527V12.756C113.527 13.028 113.599 13.24 113.743 13.392C113.887 13.536 114.083 13.608 114.331 13.608C114.627 13.608 114.879 13.528 115.087 13.368L115.591 14.688C115.399 14.824 115.167 14.928 114.895 15C114.631 15.064 114.355 15.096 114.067 15.096ZM110.659 10.128V8.688H115.135V10.128H110.659Z" fill="white"/>
</svg>
