<svg width="60" height="61" viewBox="0 0 60 61" fill="none" xmlns="http://www.w3.org/2000/svg">
<circle cx="30.0024" cy="30.127" r="30" fill="#FFE6D3"/>
<g clip-path="url(#clip0_3162_1271)">
<path d="M39.0739 33.7673C37.95 34.4505 36.6591 34.8098 35.3438 34.8056C34.2419 34.7969 33.1525 34.5715 32.1376 34.1423C31.3554 35.2466 30.9367 36.5672 30.9399 37.9204V41.3763C30.9402 41.5048 30.9141 41.632 30.8631 41.75C30.8122 41.868 30.7375 41.9743 30.6438 42.0622C30.55 42.1501 30.4392 42.2178 30.3182 42.2611C30.1972 42.3044 30.0686 42.3223 29.9403 42.3138C29.6993 42.2928 29.4752 42.1815 29.3129 42.0022C29.1505 41.8229 29.0619 41.5889 29.0649 41.347V39.8892L24.5391 35.3634C23.8664 35.6144 23.1548 35.7457 22.4368 35.7513C21.4483 35.7539 20.4782 35.4834 19.6337 34.9697C17.0802 33.4181 15.7055 29.8474 15.9716 25.4142C15.985 25.1848 16.0821 24.9684 16.2446 24.8059C16.407 24.6435 16.6235 24.5463 16.8528 24.5329C21.286 24.2716 24.8567 25.6415 26.4036 28.195C27.0113 29.1959 27.2767 30.3675 27.1595 31.5325C27.1522 31.6228 27.1189 31.709 27.0636 31.7808C27.0084 31.8525 26.9335 31.9068 26.8481 31.9369C26.7627 31.967 26.6704 31.9717 26.5824 31.9505C26.4943 31.9293 26.4143 31.883 26.352 31.8173L24.102 29.4618C23.9248 29.2934 23.6888 29.201 23.4443 29.2041C23.1998 29.2072 22.9663 29.3057 22.7934 29.4786C22.6205 29.6515 22.522 29.885 22.5189 30.1295C22.5158 30.374 22.6082 30.61 22.7766 30.7872L29.0907 37.2618C29.0977 37.1704 29.1059 37.079 29.1153 36.9888C29.3203 35.2506 30.0873 33.6269 31.2997 32.3646L37.2282 26.0997C37.4041 25.924 37.503 25.6855 37.5031 25.4369C37.5032 25.1882 37.4045 24.9497 37.2288 24.7738C37.053 24.5978 36.8146 24.499 36.5659 24.4988C36.3173 24.4987 36.0787 24.5974 35.9028 24.7732L30.1606 30.8458C30.1032 30.9067 30.0304 30.9511 29.95 30.9743C29.8696 30.9976 29.7844 30.9989 29.7033 30.9781C29.6222 30.9573 29.5481 30.9151 29.4888 30.856C29.4295 30.7969 29.3872 30.723 29.3661 30.6419C28.8106 28.5935 29.0555 26.5544 30.1161 24.8036C32.2091 21.3489 37.0794 19.4997 43.145 19.856C43.3744 19.8694 43.5908 19.9665 43.7533 20.129C43.9157 20.2914 44.0129 20.5079 44.0263 20.7372C44.3778 26.804 42.5286 31.6743 39.0739 33.7673Z" fill="#018606"/>
</g>
<defs>
<clipPath id="clip0_3162_1271">
<rect width="30" height="30" fill="white" transform="translate(15.0024 15.127)"/>
</clipPath>
</defs>
</svg>
