<svg width="60" height="61" viewBox="0 0 60 61" fill="none" xmlns="http://www.w3.org/2000/svg">
<circle cx="30.0024" cy="30.127" r="30" fill="#FFE6D3"/>
<path d="M15.7444 37.627V23.789L17.6144 25.593H12.8844V22.227H20.1004V37.627H15.7444ZM29.2145 37.935C27.8945 37.935 26.7211 37.6196 25.6945 36.989C24.6825 36.3583 23.8831 35.449 23.2965 34.261C22.7098 33.073 22.4165 31.6283 22.4165 29.927C22.4165 28.2256 22.7098 26.781 23.2965 25.593C23.8831 24.405 24.6825 23.4956 25.6945 22.865C26.7211 22.2343 27.8945 21.919 29.2145 21.919C30.5198 21.919 31.6785 22.2343 32.6905 22.865C33.7171 23.4956 34.5238 24.405 35.1105 25.593C35.6971 26.781 35.9905 28.2256 35.9905 29.927C35.9905 31.6283 35.6971 33.073 35.1105 34.261C34.5238 35.449 33.7171 36.3583 32.6905 36.989C31.6785 37.6196 30.5198 37.935 29.2145 37.935ZM29.2145 34.371C29.6838 34.371 30.0945 34.2243 30.4465 33.931C30.8131 33.6376 31.0991 33.1683 31.3045 32.523C31.5098 31.863 31.6125 30.9976 31.6125 29.927C31.6125 28.8416 31.5098 27.9763 31.3045 27.331C31.0991 26.6856 30.8131 26.2163 30.4465 25.923C30.0945 25.6296 29.6838 25.483 29.2145 25.483C28.7451 25.483 28.3271 25.6296 27.9605 25.923C27.6085 26.2163 27.3225 26.6856 27.1025 27.331C26.8971 27.9763 26.7945 28.8416 26.7945 29.927C26.7945 30.9976 26.8971 31.863 27.1025 32.523C27.3225 33.1683 27.6085 33.6376 27.9605 33.931C28.3271 34.2243 28.7451 34.371 29.2145 34.371ZM41.788 35.163V24.691H45.176V35.163H41.788ZM38.048 31.533V28.321H48.894V31.533H38.048Z" fill="#25026E"/>
</svg>
