<svg width="60" height="61" viewBox="0 0 60 61" fill="none" xmlns="http://www.w3.org/2000/svg">
<circle cx="30.0024" cy="30.127" r="30" fill="#FFE6D3"/>
<path fill-rule="evenodd" clip-rule="evenodd" d="M26.5303 34.8028H31.2399C31.2405 35.1739 31.2898 35.5328 31.3877 35.8794C31.1804 35.9649 31.0155 36.1291 30.929 36.336C30.8425 36.5429 30.8415 36.7757 30.9262 36.9833L30.962 37.0719C31.0566 37.3031 31.2391 37.4872 31.4694 37.5838C31.6998 37.6805 31.959 37.6816 32.1903 37.5871L32.2948 37.5438C32.6207 37.9224 33.0125 38.2596 33.4562 38.5422C33.2104 39.0009 33.378 39.5783 33.8367 39.8251C34.0568 39.9432 34.3148 39.9691 34.554 39.8971C34.7932 39.825 34.9939 39.6609 35.1121 39.4408L35.1903 39.2957C35.8122 39.4583 36.4542 39.5303 37.0967 39.5096L37.1212 39.6367C37.1421 39.7605 37.1876 39.8789 37.255 39.9849C37.3223 40.0908 37.4102 40.1823 37.5134 40.2538C37.6166 40.3253 37.7331 40.3755 37.856 40.4013C37.9788 40.4272 38.1056 40.4282 38.2289 40.4043C38.3522 40.3805 38.4695 40.3322 38.5738 40.2624C38.6782 40.1925 38.7675 40.1025 38.8366 39.9976C38.9056 39.8928 38.953 39.7752 38.976 39.6517C38.9989 39.5283 38.9969 39.4015 38.9702 39.2788L38.9532 39.1893C39.7736 38.9286 40.5249 38.487 41.1516 37.897L41.4446 41.4094C41.2118 41.4488 41.0023 41.5741 40.8575 41.7607C40.7127 41.9472 40.6433 42.1813 40.663 42.4166C40.6827 42.6519 40.79 42.8712 40.9637 43.0311C41.1374 43.191 41.3648 43.2799 41.6009 43.28H44.4267V26.3255C44.4312 25.0468 44.0103 23.8029 43.2305 22.7896C43.8192 22.9478 44.2298 23.1786 44.5209 23.4583C45.0455 23.9623 45.3686 24.8109 45.3686 26.3255L45.7331 31.4307C45.5108 31.7745 45.3686 32.3133 45.3686 32.919C45.3686 33.9598 45.7896 34.8028 46.3105 34.8028C46.8314 34.8028 47.2524 33.9598 47.2524 32.919C47.2524 32.3133 47.1093 31.7745 46.8879 31.4307L47.2524 26.3255C47.2524 24.5981 46.8917 23.123 45.8264 22.0992C44.7743 21.0885 43.2305 20.7079 41.3306 20.6759C41.259 20.674 39.2989 20.674 39.2462 20.674V20.6806C39.1589 20.6764 39.0716 20.6742 38.9843 20.674H25.1174C23.2948 20.674 21.9196 20.4028 20.7648 20.0448L20.6216 19.8508C21.2527 19.6907 21.8885 19.4345 22.3453 19.0973C23.5406 18.2175 24.2358 16.4477 22.7042 16.6417C22.2596 16.6982 21.9375 16.7095 21.6756 16.7189C21.0361 16.7406 20.7526 16.751 19.9048 17.3754C19.5591 17.6298 19.2559 17.9029 19.0091 18.1733C17.6913 17.1937 15.9365 16.7557 12.8725 16.9064C12.7476 16.9064 12.6278 16.956 12.5395 17.0443C12.4511 17.1326 12.4015 17.2524 12.4015 17.3773C12.4015 17.5022 12.4511 17.622 12.5395 17.7104C12.6278 17.7987 12.7476 17.8483 12.8725 17.8483H14.5086C14.777 18.0216 15.0078 18.1836 15.2122 18.3381L11.8364 22.5579H11.6367C11.343 22.5578 11.0533 22.6264 10.7908 22.7583C10.5283 22.8901 10.3003 23.0815 10.1249 23.3171C9.94958 23.5528 9.83177 23.8262 9.7809 24.1155C9.73004 24.4048 9.74753 24.702 9.83198 24.9833L10.1146 25.9252C10.231 26.3133 10.4695 26.6534 10.7946 26.8952C11.1197 27.137 11.5141 27.2675 11.9193 27.2675H15.085C15.4834 27.2675 15.8716 27.3938 16.1937 27.6282L18.2565 29.1277C18.3193 29.173 18.383 29.2138 18.4477 29.2502C19.9237 33.0555 21.4807 36.0188 23.2232 37.5099L23.5482 41.4094C23.3154 41.4488 23.1058 41.5741 22.9611 41.7607C22.8163 41.9472 22.7469 42.1813 22.7666 42.4166C22.7862 42.6519 22.8936 42.8712 23.0673 43.0311C23.241 43.191 23.4684 43.2799 23.7045 43.28H26.5303V34.8028ZM35.7705 34.8028H33.1237C33.1237 36.0555 34.4744 37.6285 36.8914 37.6285C37.7871 37.6285 38.5369 37.4119 39.1256 37.0766C37.7786 36.5397 36.7341 35.7409 35.7714 34.8028" fill="black"/>
</svg>
